<?xml version="1.0" encoding="UTF-8" standalone="no"?>
<!-- Created with Inkscape (http://www.inkscape.org/) -->

<svg
   width="48"
   height="48"
   viewBox="0 0 12.7 12.7"
   version="1.1"
   id="svg1"
   inkscape:version="1.4.2 (ebf0e940d0, 2025-05-08)"
   sodipodi:docname="favicon.svg"
   xmlns:inkscape="http://www.inkscape.org/namespaces/inkscape"
   xmlns:sodipodi="http://sodipodi.sourceforge.net/DTD/sodipodi-0.dtd"
   xmlns="http://www.w3.org/2000/svg"
   xmlns:svg="http://www.w3.org/2000/svg">
  <sodipodi:namedview
     id="namedview1"
     pagecolor="#ffffff"
     bordercolor="#000000"
     borderopacity="0.25"
     inkscape:showpageshadow="2"
     inkscape:pageopacity="0.0"
     inkscape:pagecheckerboard="true"
     inkscape:deskcolor="#d1d1d1"
     inkscape:document-units="mm"
     inkscape:zoom="5.0881761"
     inkscape:cx="78.711899"
     inkscape:cy="6.0925565"
     inkscape:window-width="1600"
     inkscape:window-height="931"
     inkscape:window-x="0"
     inkscape:window-y="0"
     inkscape:window-maximized="1"
     inkscape:current-layer="layer1" />
  <defs
     id="defs1" />
  <g
     inkscape:label="Layer 1"
     inkscape:groupmode="layer"
     id="layer1">
    <path
       style="fill:#ffffff;stroke-width:0.0151725"
       d="M 6.2461216,11.743102 C 6.2209874,11.616658 6.1471596,11.46484 5.980845,11.197599 5.6888283,10.728373 5.629053,10.522045 5.642378,10.029321 c 0.00819,-0.3027096 0.02988,-0.4474374 0.1418815,-0.9466324 0.038178,-0.1701656 0.069417,-0.3311544 0.069417,-0.3577557 0,-0.1052273 -0.143764,-0.383766 -0.270454,-0.5239971 C 5.4698775,8.0754764 5.2737553,7.945013 5.1071919,7.8842698 5.0095341,7.8486568 4.83317,7.8024205 4.825239,7.8103503 c -0.00302,0.00302 0.040407,0.035536 0.096507,0.072253 0.1433158,0.093805 0.3337058,0.2892049 0.4409988,0.452602 0.1534572,0.2337022 0.2299663,0.4799735 0.2299663,0.7402259 0,0.1749435 -0.030309,0.3082961 -0.1452209,0.6389595 -0.053877,0.1550312 -0.1120411,0.3507613 -0.129253,0.4349553 -0.085462,0.418041 -0.033472,0.81592 0.1533273,1.173425 0.040332,0.07719 0.071381,0.140346 0.068995,0.140346 -0.00238,0 -0.053561,-0.02706 -0.1137235,-0.06013 C 5.1100358,11.22885 4.8994417,11.014742 4.7650457,10.730152 4.6913292,10.574055 4.6623836,10.447437 4.6620611,10.279667 4.661511,9.9942558 4.7228972,9.8428125 4.9908586,9.4684779 5.0566255,9.3766042 5.1352294,9.2535531 5.1655343,9.1950328 5.2168972,9.0958466 5.2206388,9.0793675 5.2207009,8.9520785 5.2207566,8.8388969 5.2148371,8.8043821 5.1861089,8.7504136 5.1158204,8.618365 4.9906151,8.5276139 4.8232861,8.487435 4.7182597,8.4622151 4.4749698,8.4665081 4.2651215,8.497276 3.9934034,8.5371269 3.6292782,8.5348592 3.4124755,8.4919582 2.8569857,8.382061 2.3207974,8.0760775 1.9759581,7.6721873 1.8609925,7.5375348 1.823653,7.4879224 1.8372757,7.4879224 c 0.00498,0 0.034624,0.01304 0.06588,0.028991 0.094786,0.048357 0.3533314,0.1333362 0.5068836,0.1666041 0.2853303,0.061819 0.654368,0.067988 1.030736,0.017237 0.2116853,-0.028549 0.5816452,-0.096185 0.5960008,-0.108964 0.00794,-0.00707 -0.080633,-0.012958 -0.1972416,-0.013121 C 3.5067644,7.5782619 3.1204466,7.5318116 2.8162932,7.4558037 2.4248925,7.3579948 2.04628,7.171289 1.748992,6.9294818 1.3949979,6.6415523 1.103545,6.1725405 0.97356082,5.6816441 0.94379947,5.569249 0.88670114,5.2716986 0.8951487,5.2730229 c 9.3724e-4,1.712e-4 0.0809834,0.077328 0.1778952,0.1715165 0.2928565,0.2846226 0.5712612,0.4801874 0.9369092,0.658128 0.3446052,0.1677002 0.8037863,0.302642 1.2196496,0.358426 0.081362,0.010921 0.1479061,0.015994 0.1478749,0.011267 -3.38e-5,-0.00471 -0.070014,-0.031658 -0.1555174,-0.059879 C 2.9021909,6.3069464 2.5065051,6.1241362 2.2182019,5.9487363 1.5705461,5.5547096 1.180622,5.0144616 1.045895,4.3244757 1.0074189,4.1274276 1.0078348,3.666745 1.0466692,3.4596481 1.1004479,3.1729045 1.2153689,2.8479093 1.3471145,2.6099916 l 0.05041,-0.091034 0.010132,0.189654 c 0.05338,0.9992333 0.5085994,1.7568795 1.4084916,2.3442319 0.1694565,0.1106021 0.484346,0.2870941 0.4940833,0.2769271 0.00206,-0.00216 -0.061079,-0.058534 -0.1403107,-0.1252923 C 2.757585,4.8570546 2.3585017,4.3701782 2.1562942,3.9678691 1.9906729,3.6383507 1.9236725,3.3874788 1.9111577,3.0499919 c -0.00982,-0.2649549 0.012596,-0.4368993 0.087524,-0.67118 0.1787222,-0.5588298 0.663597,-1.1356708 1.222184,-1.45399525 0.06427,-0.0366256 0.119641,-0.0638034 0.1230481,-0.0603968 0.00341,0.003403 -0.01404,0.0356904 -0.038773,0.0717435 C 3.1715912,1.1308418 3.0391101,1.4355376 2.9688036,1.70971 c -0.073045,0.284855 -0.084406,0.3788904 -0.084016,0.6954525 3.056e-4,0.2462469 0.00616,0.3247568 0.034903,0.4681561 0.050376,0.2512998 0.1460006,0.5286283 0.2597153,0.753225 0.235986,0.4660962 0.5272934,0.8177619 1.153985,1.3930891 0.1460348,0.1340657 0.4464493,0.4217303 0.6675874,0.6392508 0.2211383,0.2175226 0.4282003,0.4193362 0.4601356,0.4484762 0.057222,0.052212 0.056754,0.050886 -0.032204,-0.091157 C 5.0802286,5.4594496 4.9241982,5.015246 4.925417,4.5828047 4.9262931,4.273437 5.0324585,3.9151536 5.1997918,3.6568897 5.2781128,3.5360085 5.4152406,3.3825746 5.4919005,3.3300465 L 5.5437848,3.2944947 5.4304015,3.2298803 C 5.0629588,3.0204832 4.847303,2.6546917 4.8234228,2.2003354 l -0.00877,-0.1668975 0.1652328,0.159854 c 0.3699745,0.3579309 0.6424756,0.4747677 1.4321304,0.6140391 0.470489,0.08298 0.7483452,0.2068788 0.9569276,0.4266997 0.095205,0.1003353 0.1608706,0.204772 0.1983295,0.3154231 0.021534,0.063604 0.034368,0.078651 0.08429,0.098817 0.096523,0.038993 0.1652064,0.088522 0.2472696,0.1783135 0.1437315,0.1572643 0.2087085,0.3410565 0.1994462,0.5641394 l -0.00212,0.051077 -0.060207,-0.054394 C 7.6662461,4.0533981 7.1016114,4.0403726 6.8035944,4.3589741 6.6464564,4.5269698 6.5942034,4.7253789 6.6475281,4.951577 6.694009,5.1487432 6.7770299,5.290588 7.1329987,5.78103 7.5003388,6.2871381 7.6225668,6.6790438 7.5659943,7.1693656 7.5257359,7.5182807 7.4638477,7.7058199 7.2305569,8.1858626 7.1311976,8.3903107 7.0385659,8.6019654 7.0247091,8.656207 c -0.030882,0.1208852 -0.034427,0.3279006 -0.00754,0.4400002 0.046389,0.1933704 0.1469446,0.3534302 0.4154673,0.6613269 0.2073271,0.2377261 0.2822572,0.3971789 0.2957269,0.6293119 0.018419,0.317449 -0.094243,0.590729 -0.3570874,0.866158 -0.10482,0.109838 -0.3301848,0.28286 -0.3467963,0.266249 -0.00422,-0.0042 0.00621,-0.03492 0.023186,-0.0682 0.1005978,-0.197187 0.1323865,-0.56711 0.064677,-0.75263 -0.053031,-0.145305 -0.1267,-0.261437 -0.3137665,-0.494627 C 6.5966219,9.9520475 6.5213943,9.8334075 6.4617392,9.6725756 l -0.042139,-0.1136075 -0.00438,0.1416268 c -0.00746,0.2413854 0.038113,0.4425981 0.1704162,0.7523511 0.093785,0.21957 0.1200703,0.352428 0.1108548,0.560264 -0.0087,0.196011 -0.047919,0.328993 -0.1452758,0.492492 -0.060935,0.102334 -0.251257,0.336716 -0.2734186,0.336716 -0.00656,0 -0.020825,-0.0447 -0.031683,-0.09932 z M 7.0113331,3.7242608 C 7.1200505,3.6957525 7.1184593,3.6978103 7.0706378,3.6475092 6.9743183,3.5461938 6.8107847,3.4831483 6.643011,3.4826512 l -0.080044,-2.038e-4 0.023431,0.045313 c 0.088793,0.171708 0.244678,0.243804 0.4249353,0.1965346 z M 7.3075308,8.8430697 C 7.3069196,8.6178251 7.3596758,8.4395259 7.54238,8.0493173 7.7804974,7.5407581 7.8682819,7.1992309 7.8684856,6.7806139 7.868614,6.4966758 7.8235859,6.2908809 7.7034259,6.0263885 L 7.6563522,5.9227728 7.689726,5.84432 C 7.8060636,5.5708464 7.9350274,5.4215404 8.5363365,4.8641735 8.9977139,4.4365163 9.280079,4.0917087 9.4992031,3.6883829 9.6533643,3.4046303 9.7727623,3.0385393 9.8114885,2.7308626 9.8372055,2.5265551 9.8216759,2.077922 9.7822569,1.8864526 9.7184473,1.5764981 9.5607164,1.1822594 9.4114716,0.95969613 9.3738109,0.90353321 9.3460748,0.8575821 9.3498401,0.8575821 c 0.013997,0 0.1377738,0.0670715 0.2332213,0.1263844 0.4620296,0.2871226 0.8892426,0.786719 1.0779556,1.2606024 0.0263,0.066049 0.06542,0.1855322 0.08692,0.2655193 0.03545,0.1318143 0.03921,0.1731241 0.04022,0.44129 0.0012,0.3283611 -0.01078,0.4152573 -0.09225,0.667588 -0.102822,0.3184182 -0.30836,0.6734641 -0.577818,0.9981231 C 9.9689668,4.7967597 9.5899704,5.1695886 9.4575225,5.2669085 9.3375521,5.3550617 9.3382041,5.3542814 9.4093567,5.3246219 9.72501,5.193044 10.132643,4.9160231 10.423349,4.6355264 10.70013,4.3684667 10.865562,4.1433973 11.016947,3.8279314 11.189608,3.468124 11.262053,3.1483998 11.301498,2.5720681 c 0.0034,-0.050154 0.008,-0.044676 0.08145,0.09862 0.227078,0.4427713 0.320537,0.8460665 0.304135,1.3124174 -0.03829,1.0887661 -0.67075,1.8368445 -1.992792,2.3571069 -0.1182386,0.04653 -0.2463732,0.092505 -0.2847408,0.102167 -0.1240617,0.031239 -0.087055,0.039378 0.084416,0.018561 0.8240308,-0.1000134 1.6294548,-0.4905989 2.1809088,-1.0576193 0.06984,-0.071811 0.128473,-0.1305653 0.130292,-0.1305653 0.0055,0 -0.03342,0.2453667 -0.05117,0.3224789 -0.06411,0.2784899 -0.212791,0.6212049 -0.376317,0.8674436 -0.137803,0.2075023 -0.415177,0.4850977 -0.619868,0.6203655 -0.485636,0.3209243 -1.137006,0.4942256 -1.8650967,0.4962223 -0.1345282,4.075e-4 -0.2182805,0.00595 -0.2048271,0.013651 0.031787,0.018174 0.5214727,0.102984 0.7096394,0.1228901 0.485224,0.051332 0.9399714,-0.00678 1.3135914,-0.167853 0.07545,-0.032528 0.139127,-0.0572 0.1415,-0.054826 0.01194,0.01194 -0.210134,0.2670658 -0.325804,0.3743061 C 10.176987,8.1917631 9.7481639,8.4111968 9.2947855,8.4978791 9.1059567,8.5339831 8.6754449,8.5345576 8.4386947,8.4991015 8.2302164,8.4678121 7.9940469,8.4670623 7.8755557,8.4972678 7.6574483,8.5529499 7.4640861,8.6968382 7.3560675,8.8838374 l -0.048203,0.083447 z"
       id="path1" />
  </g>
</svg>
