<?xml version="1.0" encoding="UTF-8" standalone="no"?>
<!-- Created with Inkscape (http://www.inkscape.org/) -->

<svg
   width="799.95563"
   height="808.40515"
   viewBox="0 0 211.65493 213.89053"
   version="1.1"
   id="svg1"
   xml:space="preserve"
   inkscape:version="1.4.2 (ebf0e940d0, 2025-05-08)"
   sodipodi:docname="globe-favicon.svg"
   xmlns:inkscape="http://www.inkscape.org/namespaces/inkscape"
   xmlns:sodipodi="http://sodipodi.sourceforge.net/DTD/sodipodi-0.dtd"
   xmlns="http://www.w3.org/2000/svg"
   xmlns:svg="http://www.w3.org/2000/svg"><sodipodi:namedview
     id="namedview1"
     pagecolor="#ffffff"
     bordercolor="#000000"
     borderopacity="0.25"
     inkscape:showpageshadow="2"
     inkscape:pageopacity="0.0"
     inkscape:pagecheckerboard="true"
     inkscape:deskcolor="#d1d1d1"
     inkscape:document-units="mm"
     inkscape:zoom="0.60399832"
     inkscape:cx="333.6102"
     inkscape:cy="405.63027"
     inkscape:window-width="1600"
     inkscape:window-height="931"
     inkscape:window-x="0"
     inkscape:window-y="0"
     inkscape:window-maximized="1"
     inkscape:current-layer="layer1" /><defs
     id="defs1" /><g
     inkscape:label="Layer 1"
     inkscape:groupmode="layer"
     id="layer1"
     transform="translate(150.97781,48.904051)"><path
       style="fill:#ffffff;stroke-width:0.925;stroke:#000000;stroke-opacity:1;fill-opacity:1;stroke-dasharray:none"
       d="m -51.725836,156.88536 c -29.910514,-2.24887 -57.607794,-18.4557 -74.719904,-43.7217 -8.74498,-12.91196 -14.04233,-27.19097 -16.16819,-43.581329 -0.63812,-4.919916 -0.63871,-18.824447 -9.3e-4,-23.752374 2.91417,-22.519708 12.61213,-42.6470844 27.93419,-57.975255 15.435755,-15.441922 36.386864,-25.603578 58.179965,-28.218308 4.691487,-0.562883 13.777835,-0.750288 18.519592,-0.381964 31.4193472,2.440549 59.603868,19.430677 75.994455,45.8108033 9.780318,15.7412577 14.768635,33.5091257 14.778808,52.6409107 0.01399,26.31059 -9.686569,50.482156 -27.750522,69.147906 -16.198355,16.738 -36.638907,26.96535 -59.259271,29.65015 -3.867916,0.45908 -13.641764,0.67186 -17.508193,0.38116 z m 2.081394,-26.735 v -17.91274 l -3.276152,0.16441 c -4.580285,0.22986 -10.320072,0.79691 -15.211521,1.50278 -4.347916,0.62744 -10.639874,1.74189 -10.813279,1.9153 -0.164963,0.16496 1.725266,4.35671 3.52857,7.82491 5.781473,11.1192 12.604838,18.94229 19.487655,22.34288 2.100823,1.03795 4.879872,2.01386 5.856205,2.0565 0.404381,0.0177 0.428522,-0.99039 0.428522,-17.89404 z m 11.998622,17.14251 c 0.875409,-0.27116 2.461059,-0.92636 3.523666,-1.456 6.518336,-3.24896 12.818826,-10.36803 18.834263,-21.28126 0.989295,-1.79478 4.133191,-8.60689 4.02305,-8.71703 -0.0394,-0.0394 -1.831518,-0.40083 -3.982475,-0.80316 -7.264401,-1.35881 -15.130357,-2.29781 -21.969982,-2.62265 l -3.61183,-0.17154 v 17.93039 17.93041 l 0.795827,-0.15807 c 0.437705,-0.0869 1.512072,-0.37992 2.387481,-0.65109 z m 22.842203,-4.52189 c 6.0371825,-2.2791 13.89712338,-6.39207 19.2754091,-10.08651 3.7970907,-2.60828 10.2845329,-7.88829 10.2845329,-8.37039 0,-0.1051 -0.192835,-0.24921 -0.428521,-0.32024 -0.235688,-0.0711 -2.026298,-0.78587 -3.979135,-1.58852 -1.9528373,-0.80266 -5.6592982,-2.18253 -8.2365798,-3.06638 l -4.6859665,-1.607 -1.0402774,2.37114 c -3.6114156,8.23162 -9.5378633,18.17848 -13.5396413,22.72474 -0.519232,0.58988 -0.875956,1.07251 -0.792721,1.07251 0.08324,0 1.49754,-0.50821 3.1429,-1.12935 z m -60.414888,-2.4716 c -3.895641,-5.26728 -8.844569,-13.96681 -11.549824,-20.303 l -0.953373,-2.23296 -4.978748,1.69081 c -2.738312,0.92995 -6.697153,2.36929 -8.79744,3.19854 l -3.81868,1.50771 1.57377,1.45074 c 5.400842,4.97863 12.155153,9.53094 19.694146,13.27357 4.112743,2.04172 9.988494,4.49231 10.83029,4.51698 0.165488,0.005 -0.734576,-1.39122 -2.000141,-3.10239 z m -27.118165,-26.91797 c 2.19732,-0.86646 5.668354,-2.13334 7.713397,-2.81529 2.045045,-0.68195 3.740454,-1.26059 3.767576,-1.28589 0.02713,-0.0253 -0.42847,-1.52974 -1.012429,-3.34323 -1.835201,-5.69922 -3.750161,-13.786789 -4.897284,-20.682999 -0.97409,-5.856018 -2.097869,-17.147037 -2.097869,-21.078063 v -1.817267 h -17.655481 -17.65548 l 0.16292,1.775306 c 1.52874,16.658736 5.98665,30.210848 14.03562,42.668563 1.88355,2.91525 5.15346,7.2932 6.88776,9.22173 l 1.24631,1.38589 2.75491,-1.22669 c 1.5152,-0.67466 4.55272,-1.93559 6.75005,-2.80206 z m 126.537493,1.19576 c 6.7547,-8.24617 12.406397,-18.890918 15.503761,-29.200734 2.116679,-7.045535 3.220078,-13.03679 4.024929,-21.854633 l 0.106165,-1.163132 H 26.285628 8.7355781 L 8.4225525,67.311205 C 7.5210433,81.574418 5.163958,94.736868 1.5281076,105.8112 c -0.66110836,2.01366 -1.17831208,3.67472 -1.14934149,3.69125 0.0289707,0.0166 1.37497089,0.44444 2.99111179,0.95091 5.9331612,1.85933 15.0940521,5.33619 17.4856951,6.63638 0.34907,0.18977 0.714267,0.34945 0.811549,0.35484 0.09728,0.006 1.237447,-1.28495 2.533701,-2.86741 z M -6.716055,103.68046 c 3.5387467,-11.735573 5.82635897,-25.090846 6.48027513,-37.832393 l 0.17908119,-3.489396 H -20.442914 -40.829128 v 20.423779 20.42378 l 2.387481,0.14207 c 10.637429,0.63299 20.178915,1.84696 27.976379,3.55946 1.1447665,0.25142 2.203296,0.46834 2.3522877,0.48204 0.1489917,0.0137 0.7776081,-1.6555 1.3969253,-3.70934 z m -69.619199,2.40778 c 7.291222,-1.36103 14.603911,-2.19167 24.058461,-2.73278 l 2.632351,-0.15066 V 82.781739 62.358671 h -20.324197 -20.324197 v 0.592695 c 0,1.308649 0.524445,8.311694 0.872507,11.650797 1.003255,9.624654 3.110452,19.946435 5.823871,28.527327 1.327189,4.1971 1.286422,4.11902 2.062187,3.95005 0.367909,-0.0801 2.707466,-0.52621 5.199017,-0.9913 z M -99.107729,52.625095 c 0.0019,-3.120871 1.024529,-13.660096 1.977962,-20.385414 1.02365,-7.220629 3.239554,-17.105497 5.276829,-23.5392663 0.474236,-1.4976498 0.771334,-2.8072229 0.660218,-2.9101624 -0.111116,-0.1029396 -0.863179,-0.3742694 -1.671249,-0.6029552 -2.56906,-0.7270502 -10.024161,-3.5056234 -14.486301,-5.39915238 -2.37214,-1.00663252 -4.40421,-1.83024092 -4.5157,-1.83024092 -0.37214,0 -4.50034,5.2554056 -6.74456,8.5861539 -9.20905,13.6675963 -13.94384,27.4486223 -15.41155,44.8566883 l -0.16,1.897741 h 17.53696 17.536974 z M -49.766877,32.484551 V 11.79305 l -3.428178,-0.168058 c -6.899311,-0.33822 -14.55545,-1.21003 -23.292543,-2.6523396 -3.248732,-0.5362969 -5.971238,-0.9750852 -6.050013,-0.9750852 -0.439805,0 -3.142379,10.0491988 -4.445137,16.5287138 -1.844694,9.174929 -3.295901,21.235045 -3.307666,27.488055 l -0.0024,1.286981 20.26298,-0.06264 20.262979,-0.06263 z m 49.58614227,18.99667 c 0,-4.15849 -1.18203227,-15.886116 -2.22318857,-22.057543 C -3.0324971,25.697824 -4.4287934,19.098476 -5.2275572,16.078272 -6.054825,12.950291 -7.5325796,8.1590145 -7.7325996,7.9562534 c -0.088844,-0.090062 -1.704215,0.1505727 -3.5897124,0.5347433 -7.348071,1.4971709 -18.129043,2.8078003 -25.481738,3.0977823 l -4.025078,0.158745 v 20.775482 20.775481 h 20.324196 20.32419727 z m 43.83140373,0.5317 C 43.650235,50.133399 42.974208,44.607337 42.280183,40.810125 40.680089,32.055542 37.305187,22.314043 33.245349,14.731488 30.455346,9.5206014 25.772232,2.6527193 22.670837,-0.77624949 L 21.490246,-2.0815361 17.572329,-0.38005778 C 13.201042,1.5183103 7.7648921,3.5668241 3.4401256,4.9454049 1.0221608,5.7161655 0.60422401,5.9217717 0.77763249,6.2552321 1.07141,6.8201595 2.838273,12.965559 3.7375521,16.550252 c 2.3369902,9.315674 4.4074295,23.464866 4.7979614,32.788827 0.077112,1.840978 0.1825802,3.484973 0.2343818,3.653321 0.074188,0.241113 3.7863507,0.306087 17.4876267,0.306087 h 17.393444 z m -93.295111,-66.910684 c 0,-14.981395 -0.05307,-17.753063 -0.339912,-17.753063 -0.186952,0 -1.309622,0.281011 -2.494822,0.624468 -2.486759,0.720635 -5.851472,2.390205 -8.023334,3.981177 -6.105178,4.472275 -13.066686,14.113505 -17.411247,24.1134322 -0.747965,1.7215985 -1.359935,3.21710906 -1.359935,3.32335679 0,0.47551621 14.255605,2.48037081 21.058805,2.96163111 5.486969,0.3881498 5.866607,0.4120843 7.284878,0.459281 l 1.285567,0.042781 z m 17.875498,17.2445323 c 5.963533,-0.4448523 14.666653,-1.64187203 19.546461,-2.68840351 l 1.231654,-0.26414236 -0.72761,-1.75885663 c -2.196349,-5.3092564 -5.620878,-11.4444498 -9.276232,-16.6187768 -2.067871,-2.92717 -6.282341,-7.300485 -8.723242,-9.052026 -3.160056,-2.267591 -7.352005,-4.155876 -10.070518,-4.536317 l -1.040697,-0.14564 v 17.815706 17.8157067 l 2.877221,-0.1603286 c 1.582471,-0.088181 4.364805,-0.2712955 6.182963,-0.4069218 z m -54.486236,-8.526854 c 3.234971,-7.1960823 6.891748,-13.2001713 12.799776,-21.0160373 l 0.596768,-0.789477 -1.677093,0.575906 c -5.888347,2.022033 -13.962255,6.09954 -19.648351,9.922863 -4.890026,3.288047 -11.35334,8.764117 -10.74557,9.1042391 1.59405,0.8920775 16.223922,5.8761119 16.904179,5.7588359 0.102284,-0.017633 0.898915,-1.6179822 1.770291,-3.5563297 z M 4.3493573,-4.7462173 C 8.206164,-6.0003625 13.781508,-8.0050798 14.444516,-8.376118 c 0.249789,-0.1397882 -0.131471,-0.6352913 -1.45147,-1.886398 -6.385757,-6.052473 -16.0920039,-12.069946 -25.649573,-15.901678 -2.199098,-0.881641 -4.035853,-1.565492 -4.081677,-1.519669 -0.04582,0.04582 0.449565,0.79271 1.100863,1.659746 4.870338,6.483611 9.4518594,14.551714 12.9508145,22.8065099 l 0.2801831,0.6610129 1.4188916,-0.4578033 c 0.78039042,-0.2517918 3.1819545,-1.0311108 5.3368091,-1.7318198 z"
       id="path1" /></g></svg>
